{"title":"Lorde - Royals [US Version] 1080p [Sbyky]","uid":9105706,"size":70166141,"categoryP":"video","categoryS":"music_videos","magnet":"?xt=urn:btih:3d41aca7fe7ec31330c9fadd731beff2eca44cf9&amp;dn=Lorde+-+Royals+%5BUS+Version%5D+1080p+%5BSbyky%5D&amp;tr=udp%3A%2F%2Ftracker.openbittorrent.com%3A80&amp;tr=udp%3A%2F%2Fopen.demonii.com%3A1337&amp;tr=udp%3A%2F%2Ftracker.coppersurfer.tk%3A6969&amp;tr=udp%3A%2F%2Fexodus.desync.com%3A6969","seeders":5,"leechers":0,"uploader":"Sbyky","files":1,"time":1382866762,"description":"[IMG]http://cdn.piczend.com/images/1EJnJnNM/1382792311_royalsusversion.jpg[/IMG]\n\nGeneral\nComplete name                            : Lorde - Royals [US Version] 1080p [Sbyky].MP4\nFormat                                   : MPEG-4\nFormat profile                           : Base Media / Version 2\nCodec ID                                 : mp42\nFile size                                : 66.9 MiB\nDuration                                 : 3mn 20s\nOverall bit rate mode                    : Variable\nOverall bit rate                         : 2 804 Kbps\nEncoded date                             : UTC 2013-09-11 03:15:48\nTagged date                              : UTC 2013-09-11 03:15:48\n\nVideo\nID                                       : 1\nFormat                                   : AVC\nFormat/Info                              : Advanced Video Codec\nFormat profile                           : &lt;a class=&quot;__cf_email__&quot; href=&quot;/cdn-cgi/l/email-protection&quot; data-cfemail=&quot;d79fbeb0bf979be3f9e7&quot;&gt;[email&amp;#160;protected]&lt;/a&gt;&lt;script cf-hash='f9e31' type=&quot;text/javascript&quot;&gt;\n/* &lt;![CDATA[ */!function(){try{var t=&quot;currentScript&quot;in document?document.currentScript:function(){for(var t=document.getElementsByTagName(&quot;script&quot;),e=t.length;e--;)if(t[e].getAttribute(&quot;cf-hash&quot;))return t[e]}();if(t&amp;&amp;t.previousSibling){var e,r,n,i,c=t.previousSibling,a=c.getAttribute(&quot;data-cfemail&quot;);if(a){for(e=&quot;&quot;,r=parseInt(a.substr(0,2),16),n=2;a.length-n;n+=2)i=parseInt(a.substr(n,2),16)^r,e+=String.fromCharCode(i);e=document.createTextNode(e),c.parentNode.replaceChild(e,c)}}}catch(u){}}();/* ]]&gt; */&lt;/script&gt;\nFormat settings, CABAC                   : Yes\nFormat settings, ReFrames                : 2 frames\nCodec ID                                 : avc1\nCodec ID/Info                            : Advanced Video Coding\nDuration                                 : 3mn 20s\nBit rate                                 : 2 550 Kbps\nWidth                                    : 1 920 pixels\nHeight                                   : 1 080 pixels\nDisplay aspect ratio                     : 16:9\nFrame rate mode                          : Constant\nFrame rate                               : 25.000 fps\nColor space                              : YUV\nChroma subsampling                       : 4:2:0\nBit depth                                : 8 bits\nScan type                                : Progressive\nBits/(Pixel*Frame)                       : 0.049\nStream size                              : 60.8 MiB (91%)\nEncoded date                             : UTC 2013-09-11 03:15:48\nTagged date                              : UTC 2013-09-11 03:15:48\n\nAudio\nID                                       : 2\nFormat                                   : AAC\nFormat/Info                              : Advanced Audio Codec\nFormat profile                           : LC\nCodec ID                                 : 40\nDuration                                 : 3mn 20s\nBit rate mode                            : Variable\nBit rate                                 : 254 Kbps\nChannel(s)                               : 2 channels\nChannel positions                        : Front: L R\nSampling rate                            : 44.1 KHz\nCompression mode                         : Lossy\nStream size                              : 6.05 MiB (9%)\nEncoded date                             : UTC 2013-09-11 03:14:56\nTagged date                              : UTC 2013-09-11 03:14:56\n\nShared By Sbyky\n[IMG]http://cdn.piczend.com/images/X3Ag13N3/1379453786_saythanks.gif[/IMG]\n[IMG]http://cdn.piczend.com/images/gGqhX2S8/1379453780_keepseeding.gif[/IMG]","torrent":{"xt":"urn:btih:3d41aca7fe7ec31330c9fadd731beff2eca44cf9","amp;dn":"Lorde+-+Royals+%5BUS+Version%5D+1080p+%5BSbyky%5D","amp;tr":["udp%3A%2F%2Ftracker.openbittorrent.com%3A80","udp%3A%2F%2Fopen.demonii.com%3A1337","udp%3A%2F%2Ftracker.coppersurfer.tk%3A6969","udp%3A%2F%2Fexodus.desync.com%3A6969"],"infoHash":"3d41aca7fe7ec31330c9fadd731beff2eca44cf9","infoHashBuffer":{"type":"Buffer","data":[61,65,172,167,254,126,195,19,48,201,250,221,115,27,239,242,236,164,76,249]},"announce":[],"urlList":[]}}